# xmcd
# 
# Track frame offsets:
#     150
#     16325
#     35505
#     49420
#     60550
#     73220
#     85585
#     96617
#     117170
#     142592
#     155500
#     173062
#     186367
#     200707
#     213692
# 
# Disc length: 3071
# 
# Revision: 2
# Processed by: cddbd v1.5.2PL0 Copyright (c) Steve Scherf et al.
# Submitted via: fre:ac v1.0.31
# 
DISCID=db0bfd0f
DTITLE=Various Artist - Blues Story #6
DYEAR=1998
DGENRE=Blues
TTITLE0=Nina Simone - My Babe Just Cares For Me
TTITLE1=Koko Taylor - Let The Good Time Roll (Live)
TTITLE2=Aaron Neville - Tell It Like It Is
TTITLE3=John Lee Hooker - Please Don't Go
TTITLE4=Howlin' Wolf - Killing Floor
TTITLE5=Bobby Bland - Farther Up The Road
TTITLE6=Ray Charles - I Choose To Sing The Blues
TTITLE7=Willy DeVille - Empty Heart
TTITLE8=Super Blues - I'm A Man
TTITLE9=Muddy Waters - Louisiana Blues
TTITLE10=Patrick Verbeke and J.J. Milteau - Willy and Leadbelly
TTITLE11=Bessie Smith - Nobody Knows You When You're Down And Out
TTITLE12=Dinah Washington - Long John Blues
TTITLE13=Etta James - All I Could Do Is Cry
TTITLE14=Screamin' Jay Hawkins - Don't Decieve Me
EXTD=
EXTT0=
EXTT1=
EXTT2=
EXTT3=
EXTT4=
EXTT5=
EXTT6=
EXTT7=
EXTT8=
EXTT9=
EXTT10=au
EXTT11=
EXTT12=
EXTT13=
EXTT14=
PLAYORDER=
